<svg width="128" height="128" viewBox="0 0 128 128" fill="none" xmlns="http://www.w3.org/2000/svg">
<path d="M48.3333 7.53704H80.0926V12.0741H48.3333V7.53704Z" fill="#378CE1"/>
<path d="M39.2592 12.0741H48.3333V16.6111H39.2592V12.0741Z" fill="#378CE1"/>
<path d="M30.1852 16.6111H39.2592V21.1481H30.1852V16.6111Z" fill="#378CE1"/>
<path d="M25.6481 21.1481H30.1852V25.6852H25.6481V21.1481Z" fill="#378CE1"/>
<path d="M21.1111 25.6852H25.6481V30.2222H21.1111V25.6852Z" fill="#378CE1"/>
<path d="M21.1111 102.815H25.6481V107.352H21.1111V102.815Z" fill="#378CE1"/>
<path d="M25.6481 107.352H30.1852V111.889H25.6481V107.352Z" fill="#378CE1"/>
<path d="M102.778 102.815H107.315V107.352H102.778V102.815Z" fill="#378CE1"/>
<path d="M98.2407 107.352H102.778V111.889H98.2407V107.352Z" fill="#378CE1"/>
<path d="M30.1852 111.889H39.2592V116.426H30.1852V111.889Z" fill="#378CE1"/>
<path d="M89.1666 111.889H98.2407V116.426H89.1666V111.889Z" fill="#378CE1"/>
<path d="M39.2592 116.426H48.3333V120.963H39.2592V116.426Z" fill="#378CE1"/>
<path d="M80.0926 116.426H89.1666V120.963H80.0926V116.426Z" fill="#378CE1"/>
<path d="M48.3333 120.963H80.0926V125.5H48.3333V120.963Z" fill="#378CE1"/>
<path d="M16.5741 30.2222H21.1111V39.2963H16.5741V30.2222Z" fill="#378CE1"/>
<path d="M12.037 84.6667H16.5741V93.7407H12.037V84.6667Z" fill="#378CE1"/>
<path d="M16.5741 93.7407H21.1111V102.815H16.5741V93.7407Z" fill="#378CE1"/>
<path d="M107.315 93.7407H111.852V102.815H107.315V93.7407Z" fill="#378CE1"/>
<path d="M111.852 84.6667H116.389V93.7407H111.852V84.6667Z" fill="#378CE1"/>
<path d="M12.037 39.2963H16.5741V48.3704H12.037V39.2963Z" fill="#378CE1"/>
<path d="M89.1666 12.0741H80.0926V16.6111H89.1666V12.0741Z" fill="#378CE1"/>
<path d="M98.2407 16.6111H89.1666V21.1481H98.2407V16.6111Z" fill="#378CE1"/>
<path d="M102.778 21.1481H98.2407V25.6852H102.778V21.1481Z" fill="#378CE1"/>
<path d="M107.315 25.6852H102.778V30.2222H107.315V25.6852Z" fill="#378CE1"/>
<path d="M111.852 30.2222H107.315V39.2963H111.852V30.2222Z" fill="#378CE1"/>
<path d="M116.389 39.2963H111.852V48.3704H116.389V39.2963Z" fill="#378CE1"/>
<path d="M12.037 3H16.5741V39.2963H12.037V3Z" fill="#378CE1"/>
<path d="M7.49998 48.3704H12.037V84.6667H7.49998V48.3704Z" fill="#378CE1"/>
<path d="M116.389 48.3704H120.926V84.6667H116.389V48.3704Z" fill="#378CE1"/>
<path d="M52.8704 107.352H75.5556V111.889H52.8704V107.352Z" fill="white"/>
<path d="M52.8704 21.1481H75.5556V25.6852H52.8704V21.1481Z" fill="white"/>
<path d="M75.5556 102.815H84.6296V107.352H75.5556V102.815Z" fill="white"/>
<path d="M34.7222 98.2777H43.7963V102.815H34.7222V98.2777Z" fill="white"/>
<path d="M34.7222 98.2777H43.7963V102.815H34.7222V98.2777Z" fill="white"/>
<path d="M75.5556 25.6852H84.6296V30.2222H75.5556V25.6852Z" fill="white"/>
<path d="M84.6296 30.2222H93.7037V34.7592H84.6296V30.2222Z" fill="white"/>
<path d="M43.7963 25.6852H52.8704V30.2222H43.7963V25.6852Z" fill="white"/>
<path d="M34.7222 30.2222H43.7963V34.7592H34.7222V30.2222Z" fill="white"/>
<path d="M30.1852 89.2037H34.7222V98.2777H30.1852V89.2037Z" fill="white"/>
<path d="M25.6482 80.1296H30.1852V89.2037H25.6482V80.1296Z" fill="white"/>
<path d="M25.6482 43.8333H30.1852V52.9074H25.6482V43.8333Z" fill="white"/>
<path d="M30.1852 34.7592H34.7222V43.8333H30.1852V34.7592Z" fill="white"/>
<path d="M93.7037 34.7592H98.2407V43.8333H93.7037V34.7592Z" fill="white"/>
<path d="M98.2407 43.8333H102.778V52.9074H98.2407V43.8333Z" fill="white"/>
<path d="M98.2407 80.1296H102.778V89.2037H98.2407V80.1296Z" fill="white"/>
<path d="M102.778 52.9074H107.315V80.1296H102.778V52.9074Z" fill="white"/>
<path d="M21.1111 52.9074H25.6482V80.1296H21.1111V52.9074Z" fill="white"/>
<path d="M93.7037 89.2037H98.2407V98.2777H93.7037V89.2037Z" fill="white"/>
<path d="M43.7963 102.815H52.8704V107.352H43.7963V102.815Z" fill="white"/>
<path d="M84.6296 98.2777H93.7037V102.815H84.6296V98.2777Z" fill="white"/>
<path d="M39.2592 43.8333H52.8703V75.5925H39.2592V43.8333Z" fill="white"/>
<path d="M75.5555 43.8333H89.1666V75.5925H75.5555V43.8333Z" fill="white"/>
</svg>
